<?xml version="1.0" standalone="no"?>
<!DOCTYPE svg PUBLIC "-//W3C//DTD SVG 20010904//EN"
 "http://www.w3.org/TR/2001/REC-SVG-20010904/DTD/svg10.dtd">
<svg version="1.0" xmlns="http://www.w3.org/2000/svg"
 width="1140.000000pt" height="238.000000pt" viewBox="0 0 1140.000000 238.000000"
 preserveAspectRatio="xMidYMid meet">
<metadata>
Created by potrace 1.16, written by Peter Selinger 2001-2019
</metadata>
<g transform="translate(0.000000,238.000000) scale(0.100000,-0.100000)"
fill="#000000" stroke="none">
<path d="M3450 1200 l0 -1140 225 0 225 0 0 1140 0 1140 -225 0 -225 0 0
-1140z"/>
<path d="M8640 1195 l0 -1145 230 0 230 0 0 518 c0 549 2 579 49 670 28 55 89
111 151 141 48 23 68 26 155 26 114 0 158 -16 213 -79 61 -70 62 -81 62 -703
l0 -563 225 0 225 0 0 635 c0 421 -4 652 -11 687 -31 150 -135 284 -271 351
-266 130 -641 61 -769 -142 l-29 -45 0 397 0 397 -230 0 -230 0 0 -1145z"/>
<path d="M4300 1980 l0 -230 -115 0 -115 0 0 -160 0 -160 115 0 115 0 0 -552
c0 -593 3 -632 51 -703 13 -20 44 -49 69 -66 82 -55 123 -62 378 -67 l232 -4
0 176 0 176 -99 0 c-113 0 -154 11 -170 46 -8 18 -11 169 -11 509 l0 485 140
0 140 0 0 160 0 160 -135 0 -135 0 0 230 0 230 -230 0 -230 0 0 -230z"/>
<path d="M7517 1785 c-405 -77 -618 -392 -618 -915 0 -295 67 -487 226 -645
91 -92 174 -140 300 -177 70 -20 103 -23 255 -23 203 0 264 12 400 78 68 33
102 58 171 127 70 70 93 101 132 180 45 92 77 195 77 253 l0 27 -224 0 -225 0
-16 -58 c-56 -197 -244 -290 -425 -211 -137 60 -199 212 -200 485 0 207 34
324 121 419 92 100 272 124 380 52 45 -30 95 -106 115 -173 l15 -54 230 0 229
0 0 28 c-1 59 -32 171 -70 251 -32 66 -57 100 -118 160 -89 89 -172 136 -307
176 -114 34 -324 43 -448 20z"/>
<path d="M2310 1784 c-228 -41 -359 -115 -452 -258 -42 -66 -82 -180 -93 -268
l-7 -58 221 0 221 0 0 24 c0 67 50 145 113 178 52 27 202 37 285 18 77 -17
127 -64 143 -135 10 -47 10 -57 -7 -91 -11 -21 -33 -46 -50 -56 -19 -11 -124
-32 -290 -58 -148 -23 -292 -51 -336 -66 -184 -61 -303 -186 -344 -361 -24
-102 -15 -268 18 -351 47 -115 132 -198 256 -252 54 -24 66 -25 242 -25 177 0
188 1 252 27 83 33 165 85 228 144 l49 46 6 -39 c4 -21 13 -62 21 -90 l15 -53
244 0 245 0 0 35 c0 28 -7 42 -34 65 -57 50 -58 59 -59 696 l-2 579 -33 67
c-59 121 -182 210 -358 259 -67 18 -110 22 -274 25 -107 1 -206 0 -220 -2z
m428 -1056 c-3 -125 -5 -136 -32 -186 -66 -119 -198 -192 -350 -193 -97 -1
-158 36 -191 114 -32 77 -15 171 42 229 48 49 110 72 283 103 77 14 161 34
188 44 26 10 51 19 55 20 5 1 7 -59 5 -131z"/>
<path d="M5780 1776 c-314 -66 -510 -274 -586 -622 -23 -105 -23 -354 0 -480
60 -335 219 -530 511 -624 98 -32 417 -41 528 -15 225 53 413 209 498 414 49
119 73 107 -196 101 l-234 -5 -30 -47 c-74 -117 -253 -158 -419 -96 -114 43
-191 150 -216 302 l-12 71 583 3 583 2 0 90 c0 208 -49 429 -127 570 -50 90
-178 216 -268 262 -122 64 -198 80 -385 84 -113 2 -185 -1 -230 -10z m302
-376 c114 -35 203 -141 227 -272 l8 -48 -339 0 -340 0 7 37 c43 233 223 349
437 283z"/>
<path d="M22 1736 c2 -8 138 -388 303 -845 l300 -831 240 0 240 0 303 838
c166 460 302 840 302 845 0 4 -109 6 -241 5 l-242 -3 -175 -607 c-97 -334
-178 -605 -181 -602 -3 3 -82 276 -176 607 l-171 602 -253 3 c-215 2 -252 0
-249 -12z"/>
<path d="M10450 225 l0 -165 455 0 455 0 0 165 0 165 -455 0 -455 0 0 -165z"/>
</g>
</svg>
