<?xml version="1.0" encoding="utf-8"?>
<!-- Generator: Adobe Illustrator 21.0.2, SVG Export Plug-In . SVG Version: 6.00 Build 0)  -->
<svg version="1.1" id="Layer_1" xmlns="http://www.w3.org/2000/svg" xmlns:xlink="http://www.w3.org/1999/xlink" x="0px" y="0px"
	 viewBox="0 0 188.9 80" style="enable-background:new 0 0 188.9 80;" xml:space="preserve">
<style type="text/css">
	.st0{clip-path:url(#SVGID_2_);}
	.st1{clip-path:url(#SVGID_4_);fill:#231F20;}
	.st2{clip-path:url(#SVGID_6_);fill:#231F20;}
	.st3{clip-path:url(#SVGID_8_);}
	.st4{clip-path:url(#SVGID_10_);fill:#231F20;}
	.st5{clip-path:url(#SVGID_12_);fill:#231F20;}
</style>
<g>
	<defs>
		<rect id="SVGID_1_" x="10.8" y="22.9" width="167.2" height="34.2"/>
	</defs>
	<clipPath id="SVGID_2_">
		<use xlink:href="#SVGID_1_"  style="overflow:visible;"/>
	</clipPath>
	<g class="st0">
		<defs>
			<rect id="SVGID_3_" x="10.8" y="22.8" width="167.4" height="34.3"/>
		</defs>
		<clipPath id="SVGID_4_">
			<use xlink:href="#SVGID_3_"  style="overflow:visible;"/>
		</clipPath>
		<polyline class="st1" points="26.7,56.5 19.8,56.5 10.8,31.6 18.1,31.6 23.3,49.9 23.4,49.9 28.7,31.6 35.7,31.6 26.7,56.5 		"/>
		<path class="st1" d="M51.1,44.4c-0.7,0.5-1.7,0.9-4.5,1.3c-2.4,0.4-4.5,1-4.5,3.7c0,2.3,1.8,3,3,3c2.9,0,5.9-1.9,5.9-4.9V44.4
			 M57.5,51.6c0,2.9,0.7,3.6,1.5,3.9v1h-7.1c-0.4-1.2-0.5-1.5-0.6-2.9c-1.5,1.5-3.6,3.6-8.1,3.6c-3.8,0-7.6-2.1-7.6-7.2
			c0-4.9,3.1-7.3,7.3-8l5.9-0.9c1-0.1,2.3-0.6,2.3-2c0-2.8-2.6-2.9-4.3-2.9c-3.3,0-3.9,2-4,3.5h-6.3c0.7-7.6,6.1-8.7,11.2-8.7
			c3.5,0,10,1.1,10,7.2V51.6z"/>
	</g>
</g>
<g>
	<defs>
		<rect id="SVGID_5_" x="10.7" y="22.8" width="167.4" height="34.3"/>
	</defs>
	<clipPath id="SVGID_6_">
		<use xlink:href="#SVGID_5_"  style="overflow:visible;"/>
	</clipPath>
	<rect x="61.4" y="22.9" class="st2" width="6.6" height="33.6"/>
</g>
<g>
	<defs>
		<rect id="SVGID_7_" x="10.8" y="22.9" width="167.2" height="34.2"/>
	</defs>
	<clipPath id="SVGID_8_">
		<use xlink:href="#SVGID_7_"  style="overflow:visible;"/>
	</clipPath>
	<g class="st3">
		<defs>
			<rect id="SVGID_9_" x="10.8" y="22.8" width="167.4" height="34.3"/>
		</defs>
		<clipPath id="SVGID_10_">
			<use xlink:href="#SVGID_9_"  style="overflow:visible;"/>
		</clipPath>
		<path class="st4" d="M80.5,31.6h4.1v4.7h-4.1v13.5c0,1.5,0.1,2,2.7,2c0.4,0,0.9,0,1.4-0.1v5c-1,0-2.1,0.1-3.1,0.1h-0.8
			c-5.7,0-6.7-2.1-6.7-5.4V36.3h-3.4v-4.7H74v-6.7h6.6V31.6"/>
		<path class="st4" d="M103.8,41.6c-0.4-4-3-5.2-5.1-5.2c-3.1,0-4.7,2-5.1,5.2H103.8 M110.3,49.2c-1.7,6-6.7,8-11,8
			c-7,0-12.4-3.4-12.4-13.6c0-3,1-12.6,12-12.6c4.9,0,11.7,2.3,11.7,13.7v1.2H93.4c0.2,1.9,0.6,6.1,5.9,6.1c1.8,0,3.7-0.9,4.2-2.7
			H110.3z"/>
		<path class="st4" d="M135.3,47.4c-0.2,2.6-2.3,9.7-11.4,9.7c-9.4,0-11.6-7.2-11.6-12.4c0-8,3.5-13.8,12-13.8
			c3.9,0,10.4,1.8,11,9.5h-6.7c-0.3-1.6-1.2-4-4-4h-0.3c-4.1,0-5.2,4.1-5.2,7.2c0,2.7,0.1,8.1,5.1,8.1c3.3,0,4.5-3.2,4.5-4.4H135.3"
			/>
	</g>
</g>
<g>
	<defs>
		<rect id="SVGID_11_" x="10.7" y="22.8" width="167.4" height="34.3"/>
	</defs>
	<clipPath id="SVGID_12_">
		<use xlink:href="#SVGID_11_"  style="overflow:visible;"/>
	</clipPath>
	<path class="st5" d="M160.8,56.5h-6.6V41.4c0-1.8-0.1-4.9-4.3-4.9c-2.9,0-5.2,2-5.2,5.8v14.3h-6.6V22.9h6.6v11.9h0.1
		c0.8-2.1,3.7-3.9,7.2-3.9c4.9,0,8.7,2.9,8.7,8.3V56.5"/>
	<rect x="164.8" y="51.8" class="st5" width="13.2" height="4.7"/>
</g>
</svg>
